<svg xmlns="http://www.w3.org/2000/svg" viewBox="0 0 100.2 60"><style>.st0{fill:#F5F5F5;stroke:#E9E9E9;stroke-miterlimit:10;} .st1{fill:#E9E9E9;} .st2{fill:#B6B6B6;}</style><path class="st0" d="M78.7 59.5H4.3c-2.1 0-3.8-1.7-3.8-3.8V4.3C.5 2.2 2.2.5 4.3.5h74.3c2.1 0 3.8 1.7 3.8 3.8v51.3c.1 2.2-1.6 3.9-3.7 3.9z"/><path class="st1" d="M75.2 15.9H8.5c-.9 0-1.6-.7-1.6-1.6V8.8c0-.9.7-1.6 1.6-1.6h66.7c.9 0 1.6.7 1.6 1.6v5.5c0 .9-.8 1.6-1.6 1.6zM75.2 53.5H8.5c-.9 0-1.6-.7-1.6-1.6v-2.7c0-.9.7-1.6 1.6-1.6h66.7c.9 0 1.6.7 1.6 1.6v2.7c0 .9-.8 1.6-1.6 1.6zM43.8 43.6H8.5c-.9 0-1.6-.7-1.6-1.6V21.1c0-.9.7-1.6 1.6-1.6h35.4c.9 0 1.6.7 1.6 1.6V42c-.1.9-.8 1.6-1.7 1.6zM75.2 43.6H51.3c-.9 0-1.6-.7-1.6-1.6V21.1c0-.9.7-1.6 1.6-1.6h23.9c.9 0 1.6.7 1.6 1.6V42c0 .9-.8 1.6-1.6 1.6z"/><path class="st2" d="M97.5 31c-.1-.1-.1-.2-.2-.3l-8.4-8.4c-.6-.6-1.5-.6-2.1 0-.6.6-.6 1.5 0 2.1l5.9 5.9H68.2c-.8 0-1.5.7-1.5 1.5s.7 1.5 1.5 1.5h24.9l-5.9 5.9c-.6.6-.6 1.5 0 2.1.3.3.7.4 1.1.4s.8-.1 1.1-.4l8.2-8.2c.5-.6.5-1.5-.1-2.1z"/></svg>